# AST/ASF file generated using VICON BodyLanguage
# -----------------------------------------------
:version 1.10
:name VICON
:units
  mass 1.0
  length 0.45
  angle deg
:documentation
   .ast/.asf automatically generated from VICON data using
   VICON BodyBuilder and BodyLanguage model FoxedUp or BRILLIANT.MOD
:root
   order TX TY TZ RX RY RZ
   axis XYZ
   position 0 0 0  
   orientation 0 0 0 
:bonedata
  begin
     id 1 
     name lhipjoint
     direction 0.722297 -0.617336 0.311742 
     length 2.6635 
     axis 0 0 0  XYZ
  end
  begin
     id 2 
     name lfemur
     direction 0.34202 -0.939693 0  
     length 7.39349  
     axis 0 0 20  XYZ
    dof rx ry rz
    limits (-160.0 20.0)
           (-70.0 70.0)
           (-60.0 70.0)
  end
  begin
     id 3 
     name ltibia
     direction 0.34202 -0.939693 0   
     length 7.36294   
     axis 0 0 20   XYZ
    dof rx
    limits (-10.0 170.0)
  end
  begin
     id 4 
     name lfoot
     direction 0.104879 -0.288152 0.951824   
     length 2.16981   
     axis -90 7.62852e-016 20   XYZ
    dof rx rz
    limits (-45.0 90.0)
           (-70.0 20.0)
  end
  begin
     id 5 
     name ltoes
     direction 1.53586e-011 -4.21895e-011 1   
     length 1.08218   
     axis -90 7.62852e-016 20   XYZ
    dof rx
    limits (-90.0 20.0)
  end
  begin
     id 6 
     name rhipjoint
     direction -0.75102 -0.589393 0.297631   
     length 2.78977  
     axis 0 0 0  XYZ 
  end
  begin
     id 7 
     name rfemur
     direction -0.34202 -0.939693 0   
     length 7.46076   
     axis 0 0 -20   XYZ
    dof rx ry rz
    limits (-160.0 20.0)
           (-70.0 70.0)
           (-70.0 60.0)
  end
  begin
     id 8 
     name rtibia
     direction -0.34202 -0.939693 0   
     length 7.31726   
     axis 0 0 -20   XYZ
    dof rx
    limits (-10.0 170.0)
 end
 begin
     id 9 
     name rfoot
     direction -0.107991 -0.296704 0.948844   
     length 2.09388  
     axis -90 -7.62852e-016 -20   XYZ
    dof rx rz
    limits (-45.0 90.0)
           (-20.0 70.0)
  end
  begin
     id 10 
     name rtoes
     direction -1.53559e-011 -4.21911e-011 1   
     length 1.04433   
     axis -90 -7.62852e-016 -20   XYZ
    dof rx
    limits (-90.0 20.0)
  end
  begin
     id 11 
     name lowerback
     direction 0.0165164 0.98272 0.184358   
     length 1.71896   
     axis 0 0 0   XYZ
    dof rx ry rz
    limits (-20.0 45.0)
           (-30.0 30.0)
           (-30.0 30.0)
  end
  begin
     id 12 
     name upperback
     direction -0.00887249 0.992297 0.123566   
     length 1.71504   
     axis 0 0 0   XYZ
    dof rx ry rz
    limits (-20.0 45.0)
           (-30.0 30.0)
           (-30.0 30.0)
  end
  begin
     id 13 
     name thorax
     direction -0.0157026 0.998908 0.0440032   
     length 1.77022   
     axis 0 0 0   XYZ
    dof rx ry rz
    limits (-20.0 45.0)
           (-30.0 30.0)
           (-30.0 30.0)
  end
  begin
     id 14 
     name lowerneck
     direction -0.0238856 0.998137 0.0561411   
     length 1.89341   
     axis 0 0 0   XYZ
    dof rx ry rz
    limits (-20.0 45.0)
           (-30.0 30.0)
           (-30.0 30.0)
  end
  begin
     id 15 
     name upperneck
     direction 0.0276574 0.952253 -0.304056   
     length 1.86999   
     axis 0 0 0   XYZ
    dof rx ry rz
    limits (-20.0 45.0)
           (-30.0 30.0)
           (-30.0 30.0)
  end
  begin
     id 16
     name head
     direction 0.00800083 0.994258 -0.106712  
     length 1.91492  
     axis 0 0 0   XYZ
    dof rx ry rz
    limits (-20.0 45.0)
           (-30.0 30.0)
           (-30.0 30.0)
  end
  begin
     id 17 
     name lclavicle
     direction 0.97203 0.225407 0.06595  
     length 3.34889  
     axis 0 0 0   XYZ
    dof ry rz
    limits (-20.0 10.0)
           (0.0 20.0)
  end
  begin
     id 18 
     name lhumerus
     direction 1 -4.48973e-011 2.20267e-027   
     length 4.85645   
     axis 180 -30 -90   XYZ
    dof rx ry rz
    limits (-60.0 90.0)
           (-90.0 90.0)
           (-90.0 90.0)
  end
  begin
     id 19
     name lradius
     direction 1 -4.4897e-011 4.60472e-027   
     length 2.79874   
     axis 180 -30 -90   XYZ
    dof rx
    limits (-10.0 170.0)
  end
  begin
     id 20
     name lwrist
     direction 1 -4.48952e-011 1.14928e-026   
     length 1.39937   
     axis -6.29373e-015 90 90   XYZ
    dof ry
    limits (-180.0 0.0)
 end
  begin
     id 21 
     name lhand
     direction 1 -4.48967e-011 2.29886e-026   
     length 0.573398   
     axis -1.46689e-014 90 90   XYZ
    dof rx rz
    limits (-90.0 90.0)
           (-45.0 45.0)
  end
  begin
     id 22 
     name lfingers
     direction 1 -4.48955e-011 4.59726e-026   
     length 0.462289   
     axis -2.93383e-014 90 90   XYZ
    dof rx
    limits (0.0 90.0)
  end
  begin
     id 23
     name lthumb
     direction 0.707107 -6.34866e-011 0.707107   
     length 0.663757   
     axis -90 45 5.69224e-014   XYZ
    dof rx rz
    limits (-45.0 45.0)
           (-45.0 45.0)
  end
  begin
     id 24 
     name rclavicle
     direction -0.981571 0.157346 0.108443   
     length 3.35257  
     axis 0 0 0   XYZ 
    dof ry rz
    limits (-10.0 20.0)
           (-20.0 0.0)
  end
  begin
     id 25 
     name rhumerus
     direction -1 -4.48967e-011 8.58308e-029  
     length 4.67018   
     axis 180 30 90   XYZ
    dof rx ry rz
    limits (-90.0 60.0)
           (-90.0 90.0)
           (-90.0 90.0)
  end
  begin
     id 26 
     name rradius
     direction -1 -4.48958e-011 4.52548e-027   
     length 2.65534   
     axis 180 30 90   XYZ
    dof rx
    limits (-10.0 170.0)
  end
  begin
     id 27 
     name rwrist
     direction -1 -4.48977e-011 1.14952e-026   
     length 1.32767   
     axis -6.29373e-015 -90 -90   XYZ
    dof ry
    limits (-180.0 0.0)
  end
  begin
     id 28
     name rhand
     direction -1 -4.48924e-011 2.29804e-026   
     length 0.594069   
     axis -1.46689e-014 -90 -90   XYZ
    dof rx rz
    limits (-90.0 90.0)
           (-45.0 45.0)
  end
  begin
     id 29
     name rfingers
     direction -1 -4.48998e-011 4.59888e-026   
     length 0.478954   
     axis -2.93383e-014 -90 -90   XYZ
    dof rx
    limits (0.0 90.0)
  end
  begin
     id 30
     name rthumb
     direction -0.707107 -6.34933e-011 0.707107   
     length 0.687685   
     axis -90 -45 -5.69224e-014   XYZ
    dof rx rz
    limits (-45.0 45.0)
           (-45.0 45.0)
  end
:hierarchy
  begin
    root lhipjoint rhipjoint lowerback
    lhipjoint lfemur
    lfemur ltibia
    ltibia lfoot
    lfoot ltoes
    rhipjoint rfemur
    rfemur rtibia
    rtibia rfoot
    rfoot rtoes
    lowerback upperback
    upperback thorax
    thorax lowerneck lclavicle rclavicle
    lowerneck upperneck
    upperneck head
    lclavicle lhumerus
    lhumerus lradius
    lradius lwrist
    lwrist lhand lthumb
    lhand lfingers
    rclavicle rhumerus
    rhumerus rradius
    rradius rwrist
    rwrist rhand rthumb
    rhand rfingers
  end

#!OML:ASF E:\pregnant2\Project 1\Capture day 1\Session 1\pregnant2.ASF
:FULLY-SPECIFIED
:DEGREES
352
root 4.80481 19.4268 -0.531932 -152.31 4.98063 176.559
lowerback -8.63496 -2.1848 -6.169
upperback -12.8204 -0.680912 0.490044
thorax -8.68865 1.1398 3.8178
lowerneck -11.0711 -7.42352 -4.23473
upperneck 49.1242 2.1574 -4.94934
head 22.7686 2.3374 -0.226359
rclavicle 1.0051e-014 -3.97569e-016
rhumerus -55.0201 6.50736 -79.6838
rradius 41.1297
rwrist 7.83387
rhand -9.27952 -13.9055
rfingers 7.12502
rthumb 16.6774 -43.209
lclavicle 1.0051e-014 -3.97569e-016
lhumerus -48.4264 5.11123 83.3349
lradius 31.8239
lwrist -5.80369
lhand -9.16959 28.5785
lfingers 7.12502
lthumb 16.7832 57.8731
rfemur -51.4196 -2.37131 22.1037
rtibia 65.6731
rfoot -7.25847 -4.26282
rtoes -9.51717
lfemur -48.988 -12.0416 -23.2717
ltibia 32.4125
lfoot -6.93276 15.6884
ltoes -10.0474
353
root 4.79055 19.4284 -0.593151 -152.324 5.09005 176.454
lowerback -8.59196 -2.18093 -6.20597
upperback -12.6805 -0.72154 0.414401
thorax -8.54935 1.09172 3.76137
lowerneck -11.5048 -7.38002 -4.22158
upperneck 49.2042 2.18079 -4.85596
head 23.0177 2.33269 -0.179444
rclavicle -6.21202e-018 5.96354e-016
rhumerus -54.8082 6.46152 -79.7459
rradius 41.3268
rwrist 7.97214
rhand -9.0861 -13.7722
rfingers 7.12502
rthumb 16.8636 -43.06
lclavicle -6.21202e-018 5.96354e-016
lhumerus -47.9709 4.8949 83.4714
lradius 31.9399
lwrist -5.41657
lhand -9.46547 28.5766
lfingers 7.12502
lthumb 16.4983 57.8951
rfemur -52.8535 -2.7067 22.0249
rtibia 68.1022
rfoot -7.62083 -4.35886
rtoes -9.49207
lfemur -48.6805 -12.1106 -23.4951
ltibia 32.3009
lfoot -7.09251 15.8473
ltoes -10.0375
354
root 4.78214 19.4324 -0.649213 -152.335 5.23951 176.326
lowerback -8.49828 -2.19739 -6.40062
upperback -12.7106 -0.744247 0.412062
thorax -8.63581 1.10226 3.86689
lowerneck -11.3451 -7.35889 -4.22333
upperneck 49.1424 2.2183 -4.91263
head 22.8966 2.34102 -0.203227
rclavicle 1.06226e-014 1.2921e-014
rhumerus -55.0502 6.48414 -79.7094
rradius 41.7025
rwrist 8.06185
rhand -8.94388 -13.7231
rfingers 7.12502
rthumb 17.0005 -42.9992
lclavicle 1.06226e-014 1.2921e-014
lhumerus -47.9527 4.69885 83.6902
lradius 32.215
lwrist -5.07156
lhand -9.89778 28.4775
lfingers 7.12502
lthumb 16.0821 57.8302
rfemur -54.3806 -2.95988 21.9462
rtibia 70.5578
rfoot -8.46109 -4.69165
rtoes -10.5414
lfemur -48.3634 -12.1005 -23.7501
ltibia 32.1189
lfoot -7.16969 15.9171
ltoes -10.0671
355
root 4.77296 19.4372 -0.704456 -152.365 5.40578 176.185
lowerback -8.40271 -2.21073 -6.57796
upperback -12.7068 -0.774248 0.377174
thorax -8.68382 1.09956 3.92878
lowerneck -11.097 -7.27448 -4.03524
upperneck 48.9844 2.31862 -5.09959
head 22.6496 2.39084 -0.324135
rclavicle -1.55363e-014 -2.78299e-015
rhumerus -55.0896 6.54148 -79.7471
rradius 41.8748
rwrist 8.03854
rhand -8.87648 -13.673
rfingers 7.12502
rthumb 17.0653 -42.9435
lclavicle -1.55363e-014 -2.78299e-015
lhumerus -47.8613 4.32858 83.9743
lradius 32.546
lwrist -4.48363
lhand -10.0102 28.8075
lfingers 7.12502
lthumb 15.9739 58.1689
rfemur -55.9128 -3.21351 21.8617
rtibia 72.987
rfoot -9.07256 -5.05265
rtoes -11.0008
lfemur -48.0089 -12.0365 -24.0629
ltibia 31.9129
lfoot -7.32844 15.942
ltoes -9.82386
356
root 4.76381 19.448 -0.762041 -152.454 5.51554 176.133
lowerback -8.18155 -2.20169 -6.63507
upperback -12.6541 -0.807317 0.352326
thorax -8.74708 1.0748 3.93668
lowerneck -11.2733 -7.24752 -3.90792
upperneck 48.9987 2.34346 -5.17412
head 22.7333 2.40338 -0.388838
rclavicle -7.78987e-015 -1.27222e-014
rhumerus -55.1433 6.51532 -79.7699
rradius 42.2351
rwrist 8.03625
rhand -8.80206 -13.7319
rfingers 7.12502
rthumb 17.137 -42.9962
lclavicle -7.78987e-015 -1.27222e-014
lhumerus -47.6582 4.0908 84.1352
lradius 32.8727
lwrist -4.2506
lhand -10.0204 28.9949
lfingers 7.12502
lthumb 15.964 58.3571
rfemur -57.3709 -3.48849 21.9306
rtibia 75.3602
rfoot -9.37912 -5.53794
rtoes -11.9898
lfemur -47.5628 -12.0101 -24.2583
ltibia 31.7176
lfoot -7.45376 16.0127
ltoes -9.88448
